HIERARCHY
ROOT joint_Root
{
	OFFSET 0.0 0.0 0.0
	CHANNELS 6 Xposition Yposition Zposition Zrotation Xrotation Yrotation 
	JOINT Hips
	{
		OFFSET 4.5925 91.4895 -427.239
		CHANNELS 6 Xposition Yposition Zposition Zrotation Xrotation Yrotation 
		JOINT Spine
		{
			OFFSET 15.7357 0.0 0.0
			CHANNELS 6 Xposition Yposition Zposition Zrotation Xrotation Yrotation 
			JOINT Chest
			{
				OFFSET 8.98455 -0.406207 0.0
				CHANNELS 6 Xposition Yposition Zposition Zrotation Xrotation Yrotation 
				JOINT Neck
				{
					OFFSET 16.3773 0.0 0.0
					CHANNELS 6 Xposition Yposition Zposition Zrotation Xrotation Yrotation 
					JOINT Head
					{
						OFFSET 6.45672 0.0 0.0
						CHANNELS 6 Xposition Yposition Zposition Zrotation Xrotation Yrotation 
						End Site
						{
							OFFSET 0.0 0.0 0.0
						}
					}
				}
				JOINT Shoulder_L
				{
					OFFSET 12.9942 -0.242716 4.98039
					CHANNELS 6 Xposition Yposition Zposition Zrotation Xrotation Yrotation 
					JOINT UpperArm_L
					{
						OFFSET 5.34809 0.0 0.0
						CHANNELS 6 Xposition Yposition Zposition Zrotation Xrotation Yrotation 
						JOINT LowerArm_L
						{
							OFFSET 24.3286 1.87007e-05 0.0
							CHANNELS 6 Xposition Yposition Zposition Zrotation Xrotation Yrotation 
							JOINT Hand_L
							{
								OFFSET 22.2916 0.0 0.0
								CHANNELS 6 Xposition Yposition Zposition Zrotation Xrotation Yrotation 
								End Site
								{
									OFFSET 0.0 0.0 0.0
								}
							}
						}
					}
				}
				JOINT Shoulder_R
				{
					OFFSET 12.9945 -0.242716 -4.98039
					CHANNELS 6 Xposition Yposition Zposition Zrotation Xrotation Yrotation 
					JOINT UpperArm_R
					{
						OFFSET -5.34813 0.0 0.0
						CHANNELS 6 Xposition Yposition Zposition Zrotation Xrotation Yrotation 
						JOINT LowerArm_R
						{
							OFFSET -24.3289 0.000322201 0.0
							CHANNELS 6 Xposition Yposition Zposition Zrotation Xrotation Yrotation 
							JOINT Hand_R
							{
								OFFSET -22.2915 -0.000108084 0.0
								CHANNELS 6 Xposition Yposition Zposition Zrotation Xrotation Yrotation 
								End Site
								{
									OFFSET 0.0 0.0 0.0
								}
							}
						}
					}
				}
			}
		}
		JOINT UpperLeg_L
		{
			OFFSET -2.19248 -6.46944 0.0
			CHANNELS 6 Xposition Yposition Zposition Zrotation Xrotation Yrotation 
			JOINT LowerLeg_L
			{
				OFFSET 39.0811 0.0 -1.23785e-05
				CHANNELS 6 Xposition Yposition Zposition Zrotation Xrotation Yrotation 
				JOINT Foot_L
				{
					OFFSET 40.9854 0.0 -1.26872e-05
					CHANNELS 6 Xposition Yposition Zposition Zrotation Xrotation Yrotation 
					JOINT Toes_L
					{
						OFFSET 11.7543 0.0 0.0
						CHANNELS 6 Xposition Yposition Zposition Zrotation Xrotation Yrotation 
						End Site
						{
							OFFSET 0.0 0.0 0.0
						}
					}
				}
			}
		}
		JOINT UpperLeg_R
		{
			OFFSET -2.19251 6.46944 0.0
			CHANNELS 6 Xposition Yposition Zposition Zrotation Xrotation Yrotation 
			JOINT LowerLeg_R
			{
				OFFSET -39.0811 -0.00228153 -0.0401928
				CHANNELS 6 Xposition Yposition Zposition Zrotation Xrotation Yrotation 
				JOINT Foot_R
				{
					OFFSET -40.9854 0.0 0.0
					CHANNELS 6 Xposition Yposition Zposition Zrotation Xrotation Yrotation 
					JOINT Toes_R
					{
						OFFSET -11.7543 0.0 0.0
						CHANNELS 6 Xposition Yposition Zposition Zrotation Xrotation Yrotation 
						End Site
						{
							OFFSET 0.0 0.0 0.0
						}
					}
				}
			}
		}
	}
}
MOTION
Frames:	6
Frame Time:	0.0333333
0.000000 0.000000 0.000000 0.000000 0.000000 -0.000000 0.066449 90.325700 1.291790 89.610800 -4.561330 13.547800 15.735700 0.000005 -0.000001 89.573900 80.333100 -90.681300 8.984550 -0.406207 -0.000000 11.566600 -0.179266 -2.195820 16.377300 -0.000001 -0.000001 4.872170 -2.511840 -0.976461 6.456720 -0.000001 -0.000000 -4.880820 -1.077780 -7.193960 12.994200 -0.242716 4.980390 -92.134400 8.113800 -75.208000 5.348090 -0.000007 -0.000001 -58.140900 39.273700 -17.806600 24.328600 0.000019 0.000005 8.379260 22.384300 -21.146000 22.291600 -0.000001 0.000005 11.073700 5.251710 1.387580 12.994500 -0.242716 -4.980390 88.688500 10.846600 -83.063300 -5.348130 -0.000001 -0.000004 -63.046300 35.928500 -12.936400 -24.328900 0.000322 -0.000009 1.036680 2.865710 -19.915700 -22.291500 -0.000108 -0.000004 15.196200 5.415540 -3.449360 -2.192480 -6.469440 -0.000000 -174.064000 -13.788400 4.720550 39.081100 -0.000007 -0.000012 -0.211955 0.339320 31.991100 40.985400 -0.000006 -0.000013 0.771803 4.589390 -72.758400 11.754300 -0.000000 0.000003 -0.000216 -0.001973 -16.651800 -2.192510 6.469440 -0.000001 171.803000 19.227900 -175.126000 -39.081100 -0.002282 -0.040193 -0.234033 0.382390 31.826200 -40.985400 0.000008 0.000006 2.428350 12.813400 -72.198700 -11.754300 -0.000006 -0.000006 -0.002457 -0.034292 -17.967600
0.000000 0.000000 0.000000 0.000000 0.000000 -0.000000 0.179064 90.308300 1.265670 89.580100 -4.746930 13.604500 15.735700 0.000005 -0.000001 89.578000 80.315500 -90.721200 8.984550 -0.406207 -0.000000 11.601700 -0.179673 -2.267250 16.377300 -0.000001 -0.000001 5.284420 -2.344910 -1.216800 6.456720 -0.000001 -0.000000 -4.136220 -0.829982 -8.133410 12.994200 -0.242716 4.980390 -92.141400 8.143140 -75.212600 5.348090 -0.000007 -0.000001 -58.079600 39.086700 -17.866900 24.328600 0.000019 0.000005 8.411210 22.403300 -21.204900 22.291600 -0.000001 0.000005 11.115400 5.251870 1.383150 12.994500 -0.242716 -4.980390 88.682300 10.590500 -82.866200 -5.348130 -0.000001 -0.000004 -62.992500 35.426600 -13.166800 -24.328900 0.000322 -0.000009 1.239820 3.327890 -20.462100 -22.291500 -0.000108 -0.000004 15.351700 5.424820 -3.761600 -2.192480 -6.469440 -0.000000 -174.063000 -13.945600 4.739650 39.081100 -0.000007 -0.000012 -0.210383 0.335366 32.101300 40.985400 -0.000006 -0.000013 0.851631 4.552950 -72.830400 11.754300 -0.000000 0.000003 -0.000230 -0.002086 -16.655900 -2.192510 6.469440 -0.000001 171.788000 19.052800 -175.179000 -39.081100 -0.002282 -0.040193 -0.235661 0.383696 31.914300 -40.985400 0.000008 0.000006 2.362140 12.846500 -72.173100 -11.754300 -0.000006 -0.000006 -0.002336 -0.032849 -17.908900
0.000000 0.000000 0.000000 0.000000 0.000000 -0.000000 0.300451 90.304100 1.226410 89.562100 -4.918620 13.644700 15.735700 0.000005 -0.000001 89.567100 80.311700 -90.744900 8.984550 -0.406207 -0.000000 11.609100 -0.184618 -2.335860 16.377300 -0.000001 -0.000001 5.637050 -2.121900 -1.533980 6.456720 -0.000001 -0.000000 -3.324930 -0.570770 -9.003920 12.994200 -0.242716 4.980390 -92.158000 8.181430 -75.169200 5.348090 -0.000007 -0.000001 -58.004300 39.031400 -17.963800 24.328600 0.000019 0.000005 8.392020 22.365600 -21.191100 22.291600 -0.000001 0.000005 11.195400 5.249890 1.435540 12.994500 -0.242716 -4.980390 88.644100 10.524000 -82.616400 -5.348130 -0.000001 -0.000004 -62.860900 33.528500 -13.052000 -24.328900 0.000322 -0.000009 1.409630 3.554930 -21.661100 -22.291500 -0.000108 -0.000004 15.759300 5.430300 -3.948790 -2.192480 -6.469440 -0.000000 -174.078000 -14.120700 4.753090 39.081100 -0.000007 -0.000012 -0.209475 0.333273 32.151300 40.985400 -0.000006 -0.000013 0.928308 4.509370 -72.853400 11.754300 -0.000000 0.000003 -0.000235 -0.002123 -16.657300 -2.192510 6.469440 -0.000001 171.772000 18.862400 -175.219000 -39.081100 -0.002282 -0.040193 -0.237526 0.386313 31.939300 -40.985400 0.000008 0.000006 2.282260 12.861500 -72.115900 -11.754300 -0.000006 -0.000006 -0.002479 -0.034560 -17.978500
0.000000 0.000000 0.000000 0.000000 0.000000 -0.000000 0.435692 90.296400 1.183660 89.561400 -5.113570 13.670100 15.735700 0.000005 -0.000001 89.569100 80.315100 -90.777400 8.984550 -0.406207 -0.000000 11.602500 -0.184888 -2.397120 16.377300 -0.000001 -0.000001 6.044320 -1.867350 -1.843870 6.456720 -0.000001 -0.000000 -2.583620 -0.220508 -9.908960 12.994200 -0.242716 4.980390 -92.172200 8.185910 -75.083400 5.348090 -0.000007 -0.000001 -58.002100 39.005500 -18.041700 24.328600 0.000019 0.000005 8.415150 22.412800 -21.206400 22.291600 -0.000001 0.000005 11.111200 5.249210 1.453610 12.994500 -0.242716 -4.980390 88.588100 10.475500 -82.279800 -5.348130 -0.000001 -0.000004 -62.720800 30.101400 -12.706200 -24.328900 0.000322 -0.000009 1.383890 3.195810 -23.446200 -22.291500 -0.000108 -0.000004 16.276900 5.438760 -4.242500 -2.192480 -6.469440 -0.000000 -174.141000 -14.274900 4.744650 39.081100 -0.000007 -0.000012 -0.206321 0.327531 32.208300 40.985400 -0.000006 -0.000013 1.009370 4.428770 -72.884000 11.754300 -0.000000 0.000003 -0.000239 -0.002151 -16.658300 -2.192510 6.469440 -0.000001 171.759000 18.651700 -175.330000 -39.081100 -0.002282 -0.040193 -0.234522 0.380437 32.010700 -40.985400 0.000008 0.000006 2.209850 12.883300 -72.058400 -11.754300 -0.000006 -0.000006 -0.002430 -0.033972 -17.954600
0.000000 0.000000 0.000000 0.000000 0.000000 -0.000000 0.597958 90.291600 1.159630 89.587100 -5.356110 13.664200 15.735700 0.000005 -0.000001 89.607700 80.354900 -90.847300 8.984550 -0.406207 -0.000000 11.523100 -0.171597 -2.460930 16.377300 -0.000001 -0.000001 6.597840 -1.522750 -2.206370 6.456720 -0.000001 -0.000000 -1.814360 0.244824 -10.773100 12.994200 -0.242716 4.980390 -92.178800 8.150880 -74.978800 5.348090 -0.000007 -0.000001 -58.125400 39.019400 -17.980500 24.328600 0.000019 0.000005 8.432700 22.399300 -21.258300 22.291600 -0.000001 0.000005 11.125200 5.249550 1.444550 12.994500 -0.242716 -4.980390 88.515700 10.379400 -81.815600 -5.348130 -0.000001 -0.000004 -62.151900 26.093000 -12.568300 -24.328900 0.000322 -0.000009 1.187530 2.481470 -25.608100 -22.291500 -0.000108 -0.000004 16.956400 5.439860 -4.281950 -2.192480 -6.469440 -0.000000 -174.273000 -14.414200 4.733210 39.081100 -0.000007 -0.000012 -0.204031 0.323693 32.224500 40.985400 -0.000006 -0.000013 1.085210 4.264140 -72.910700 11.754300 -0.000000 0.000003 -0.000246 -0.002203 -16.660100 -2.192510 6.469440 -0.000001 171.706000 18.392400 -175.459000 -39.081100 -0.002282 -0.040193 -0.236722 0.383165 32.063900 -40.985400 0.000008 0.000006 2.110790 12.932400 -71.998100 -11.754300 -0.000006 -0.000006 -0.002389 -0.033481 -17.934600
0.000000 0.000000 0.000000 0.000000 0.000000 -0.000000 0.780340 90.283800 1.118910 89.618900 -5.699620 13.630200 15.735700 0.000005 -0.000001 89.584000 80.425400 -90.864200 8.984550 -0.406207 -0.000000 11.382000 -0.178263 -2.541600 16.377300 -0.000001 -0.000001 7.294710 -1.105810 -2.531940 6.456720 -0.000001 -0.000000 -0.992356 0.807603 -11.638600 12.994200 -0.242716 4.980390 -92.206100 8.124370 -74.752500 5.348090 -0.000007 -0.000001 -58.214400 39.038300 -17.835200 24.328600 0.000019 0.000005 8.448000 22.264500 -21.405300 22.291600 -0.000001 0.000005 11.100300 5.250410 1.421940 12.994500 -0.242716 -4.980390 88.464000 10.212800 -81.399900 -5.348130 -0.000001 -0.000004 -60.987800 22.106600 -12.907200 -24.328900 0.000322 -0.000009 1.242770 2.353000 -27.871900 -22.291500 -0.000108 -0.000004 17.590800 5.439850 -4.281650 -2.192480 -6.469440 -0.000000 -174.427000 -14.626600 4.681100 39.081100 -0.000007 -0.000012 -0.198091 0.313867 32.257500 40.985400 -0.000006 -0.000013 1.164550 4.045480 -72.941400 11.754300 -0.000000 0.000003 -0.000230 -0.002084 -16.655900 -2.192510 6.469440 -0.000001 171.683000 18.039500 -175.668000 -39.081100 -0.002282 -0.040193 -0.236353 0.381350 32.146700 -40.985400 0.000008 0.000006 1.997060 12.955300 -71.929300 -11.754300 -0.000006 -0.000006 -0.002542 -0.035311 -18.009000
